HIERARCHY
ROOT Hips
{
	OFFSET 0.000000 0.000000 0.000000
	CHANNELS 6 Xposition Yposition Zposition Xrotation Yrotation Zrotation
	JOINT LeftUpLeg_virtual
	{
		OFFSET 0.000000 0.000000 0.000000
		CHANNELS 3 Xrotation Yrotation Zrotation
		JOINT LeftUpLeg
		{
			OFFSET 15.427100 -6.655098 0.678600
			CHANNELS 3 Xrotation Yrotation Zrotation
			JOINT LeftLeg
			{
				OFFSET 4.081073 -39.591068 13.024000
				CHANNELS 3 Xrotation Yrotation Zrotation
				JOINT LeftFoot
				{
					OFFSET -4.081074 -37.707932 -15.979700
					CHANNELS 3 Xrotation Yrotation Zrotation
					JOINT LeftToeBase
					{
						OFFSET 5.346399 -15.068900 20.645000
						CHANNELS 3 Xrotation Yrotation Zrotation
						JOINT LeftToe_End
						{
							OFFSET 2.754700 0.931300 11.300900
							CHANNELS 3 Xrotation Yrotation Zrotation
							End Site
							{
								OFFSET 0 0 0
							}
						}
					}
				}
			}
		}
	}
	JOINT RightUpLeg_virtual
	{
		OFFSET 0.000000 0.000000 0.000000
		CHANNELS 3 Xrotation Yrotation Zrotation
		JOINT RightUpLeg
		{
			OFFSET -15.569500 -6.655098 0.678600
			CHANNELS 3 Xrotation Yrotation Zrotation
			JOINT RightLeg
			{
				OFFSET -4.081825 -39.591045 13.023800
				CHANNELS 3 Xrotation Yrotation Zrotation
				JOINT RightFoot
				{
					OFFSET 4.081824 -37.707954 -15.979600
					CHANNELS 3 Xrotation Yrotation Zrotation
					JOINT RightToeBase
					{
						OFFSET -5.346400 -15.068900 20.645000
						CHANNELS 3 Xrotation Yrotation Zrotation
						JOINT RightToe_End
						{
							OFFSET -2.754700 0.931300 11.300900
							CHANNELS 3 Xrotation Yrotation Zrotation
							End Site
							{
								OFFSET 0 0 0
							}
						}
					}
				}
			}
		}
	}
	JOINT Spine_virtual
	{
		OFFSET 0.000000 0.000000 0.000000
		CHANNELS 3 Xrotation Yrotation Zrotation
		JOINT Spine
		{
			OFFSET -0.279200 12.230698 -2.892100
			CHANNELS 3 Xrotation Yrotation Zrotation
			JOINT Spine1
			{
				OFFSET -0.232667 10.192268 -1.242267
				CHANNELS 3 Xrotation Yrotation Zrotation
				JOINT Spine1_split
				{
					OFFSET -0.232667 10.192268 -1.242267
					CHANNELS 3 Xrotation Yrotation Zrotation
					JOINT Spine2
					{
						OFFSET -0.232667 10.192268 -1.242267
						CHANNELS 3 Xrotation Yrotation Zrotation
						JOINT Neck_virtual
						{
							OFFSET 0.000000 0.000000 0.000000
							CHANNELS 3 Xrotation Yrotation Zrotation
							JOINT Neck
							{
								OFFSET -0.418800 17.814194 8.416900
								CHANNELS 3 Xrotation Yrotation Zrotation
								JOINT Head
								{
									OFFSET 0.000000 7.031097 3.806800
									CHANNELS 3 Xrotation Yrotation Zrotation
									JOINT HeadTop_End
									{
										OFFSET 0.000000 24.646606 12.978600
										CHANNELS 3 Xrotation Yrotation Zrotation
										End Site
										{
											OFFSET 0 0 0
										}
									}
								}
							}
						}
						JOINT LeftShoulder_virtual
						{
							OFFSET 0.000000 0.000000 0.000000
							CHANNELS 3 Xrotation Yrotation Zrotation
							JOINT LeftShoulder
							{
								OFFSET 8.476499 7.247704 -3.868750
								CHANNELS 3 Xrotation Yrotation Zrotation
								JOINT LeftShoulder_split
								{
									OFFSET 8.476499 7.247704 -3.868750
									CHANNELS 3 Xrotation Yrotation Zrotation
									JOINT LeftArm
									{
										OFFSET 9.308998 -2.777710 0.208600
										CHANNELS 3 Xrotation Yrotation Zrotation
										JOINT LeftForeArm
										{
											OFFSET 29.972298 0.000000 0.000000
											CHANNELS 3 Xrotation Yrotation Zrotation
											JOINT LeftHand
											{
												OFFSET 26.026505 0.000000 0.000000
												CHANNELS 3 Xrotation Yrotation Zrotation
												End Site
												{
													OFFSET 0 0 0
												}
											}
										}
									}
								}
							}
						}
						JOINT RightShoulder_virtual
						{
							OFFSET 0.000000 0.000000 0.000000
							CHANNELS 3 Xrotation Yrotation Zrotation
							JOINT RightShoulder
							{
								OFFSET -7.570500 7.247704 -3.868750
								CHANNELS 3 Xrotation Yrotation Zrotation
								JOINT RightShoulder_split
								{
									OFFSET -7.570500 7.247704 -3.868750
									CHANNELS 3 Xrotation Yrotation Zrotation
									JOINT RightArm
									{
										OFFSET -9.308998 -2.777710 0.208500
										CHANNELS 3 Xrotation Yrotation Zrotation
										JOINT RightForeArm
										{
											OFFSET -29.972300 0.000000 0.000000
											CHANNELS 3 Xrotation Yrotation Zrotation
											JOINT RightHand
											{
												OFFSET -26.026505 0.000000 0.000000
												CHANNELS 3 Xrotation Yrotation Zrotation
												End Site
												{
													OFFSET 0 0 0
												}
											}
										}
									}
								}
							}
						}
					}
				}
			}
		}
	}
}
MOTION
Frames: 5
Frame Time: 0.03333333
4.855555 11.640873 -13.584278 0.000000 0.000000 0.000000 83.033544 3.178687 -2.148473 -5.851613 8.129523 19.034171 28.005927 19.466208 2.802924 26.696076 28.318255 -15.132870 4.358677 3.469527 13.387377 0.000000 0.000000 0.000000 84.358990 -2.043344 -0.305229 -7.485899 -5.464088 -19.048320 7.205641 -5.982339 2.661944 36.589866 -19.706218 22.089023 17.547388 -1.818307 -8.561019 0.000000 0.000000 0.000000 88.277449 -0.161903 -0.442499 2.961313 0.486044 -1.614470 1.227318 0.461340 -0.001765 0.420132 -1.274489 0.612555 0.000000 0.000000 0.000000 0.132850 0.310306 -0.301287 -4.078098 -12.348520 5.583134 -19.299543 -56.181895 -20.084089 0.000000 0.000000 0.000000 0.869067 0.271320 -0.372484 3.508509 -17.797310 -2.885687 -1.212825 -0.830843 -1.555256 23.060413 -20.273651 -56.479135 0.345737 -25.192210 -0.972356 0.000000 0.000000 0.000000 0.653437 0.640097 0.068976 -0.316713 12.245803 11.643063 6.564556 5.586810 -2.462448 7.237485 -9.014928 55.436011 0.560762 28.846064 1.150249 0.000000 0.000000 0.000000 
4.854381 11.638985 -13.591633 0.000000 0.000000 0.000000 83.033189 3.179502 -2.148230 -5.853184 8.127816 19.031134 28.013459 19.466058 2.796425 26.700355 28.326895 -15.122519 4.352356 3.470248 13.386875 0.000000 0.000000 0.000000 84.354195 -2.039369 -0.309647 -7.489327 -5.461421 -19.051078 7.214807 -5.979893 2.656544 36.586021 -19.695049 22.103220 17.543727 -1.816645 -8.566237 0.000000 0.000000 0.000000 88.274403 -0.162167 -0.435861 2.960091 0.486081 -1.610721 1.228806 0.459718 0.000355 0.408109 -1.273514 0.608319 0.000000 0.000000 0.000000 0.136074 0.310843 -0.301566 -4.081590 -12.338792 5.577479 -19.298170 -56.169311 -20.087499 0.000000 0.000000 0.000000 0.877055 0.269589 -0.370960 3.513415 -17.816414 -2.871483 -1.216550 -0.805661 -1.558713 23.066990 -20.271974 -56.477984 0.348632 -25.161117 -0.965804 0.000000 0.000000 0.000000 0.655136 0.639043 0.071283 -0.317906 12.244298 11.634560 6.573769 5.611853 -2.468331 7.218970 -8.993819 55.423461 0.575865 28.879139 1.140567 0.000000 0.000000 0.000000 
4.851757 11.638496 -13.601864 0.000000 0.000000 0.000000 83.030744 3.183366 -2.154812 -5.866284 8.133819 19.037607 28.028962 19.464171 2.792022 26.718783 28.328563 -15.120094 4.340877 3.470152 13.384817 0.000000 0.000000 0.000000 84.348356 -2.038817 -0.314885 -7.481331 -5.450479 -19.047919 7.216602 -5.982592 2.645330 36.582930 -19.682933 22.122651 17.569188 -1.815116 -8.554225 0.000000 0.000000 0.000000 88.272730 -0.164556 -0.427783 2.959376 0.488519 -1.601732 1.233210 0.457885 0.002480 0.399569 -1.277196 0.606509 0.000000 0.000000 0.000000 0.139251 0.309622 -0.299915 -4.084644 -12.322140 5.566932 -19.276419 -56.164540 -20.088561 0.000000 0.000000 0.000000 0.886332 0.267253 -0.371597 3.518609 -17.857639 -2.864602 -1.224592 -0.793234 -1.563329 23.088927 -20.274402 -56.460850 0.332708 -25.110227 -0.973052 0.000000 0.000000 0.000000 0.660580 0.637540 0.072635 -0.317799 12.246858 11.626358 6.593025 5.639095 -2.478734 7.189414 -9.003930 55.423611 0.602034 28.893326 1.127557 0.000000 0.000000 0.000000 
4.847838 11.638927 -13.611687 0.000000 0.000000 0.000000 83.028203 3.189845 -2.168592 -5.892952 8.148884 19.054850 28.049912 19.460894 2.787715 26.747950 28.322544 -15.126434 4.327711 3.469314 13.382418 0.000000 0.000000 0.000000 84.343520 -2.037586 -0.324903 -7.466916 -5.430132 -19.041242 7.216419 -5.988740 2.629799 36.581571 -19.671348 22.148589 17.619830 -1.813384 -8.528857 0.000000 0.000000 0.000000 88.272491 -0.170172 -0.421251 2.960771 0.492855 -1.588951 1.239602 0.456676 0.004094 0.402491 -1.292671 0.612948 0.000000 0.000000 0.000000 0.141336 0.307310 -0.297297 -4.086758 -12.302982 5.556186 -19.240264 -56.167760 -20.087446 0.000000 0.000000 0.000000 0.894758 0.264842 -0.374442 3.524515 -17.919505 -2.861734 -1.230464 -0.789653 -1.574606 23.124572 -20.269160 -56.426290 0.304840 -25.071929 -0.991201 0.000000 0.000000 0.000000 0.668049 0.636540 0.072761 -0.317577 12.250848 11.622013 6.619459 5.667576 -2.487964 7.150742 -9.054548 55.431042 0.633663 28.875752 1.112283 0.000000 0.000000 0.000000 
4.843195 11.640282 -13.620724 0.000000 0.000000 0.000000 83.025403 3.200413 -2.189453 -5.931028 8.169831 19.079555 28.075670 19.458762 2.782028 26.778931 28.313839 -15.138216 4.313672 3.467879 13.380583 0.000000 0.000000 0.000000 84.341020 -2.031455 -0.341375 -7.454387 -5.403264 -19.035809 7.220419 -5.993193 2.612892 36.584040 -19.654602 22.187682 17.675228 -1.809865 -8.496640 0.000000 0.000000 0.000000 88.275161 -0.176081 -0.419043 2.965175 0.498415 -1.573714 1.247306 0.456425 0.004018 0.411628 -1.312423 0.618064 0.000000 0.000000 0.000000 0.141473 0.304416 -0.294832 -4.088827 -12.284827 5.548581 -19.202257 -56.176626 -20.087993 0.000000 0.000000 0.000000 0.900559 0.262584 -0.378286 3.531751 -17.998933 -2.857140 -1.225146 -0.781387 -1.585983 23.164511 -20.256487 -56.377911 0.276494 -25.057300 -1.012806 0.000000 0.000000 0.000000 0.676112 0.635721 0.070272 -0.316291 12.251123 11.621114 6.638922 5.684921 -2.503256 7.109050 -9.137362 55.434758 0.665757 28.837861 1.096733 0.000000 0.000000 0.000000 
